<svg xmlns="http://www.w3.org/2000/svg" width="512" height="137" fill="none" viewBox="0 0 512 137">
  <g clip-path="url(#a)">
    <path fill="#E52927" d="m72.481 0 20.83 47.238 35.753 5.087-22.891 34.276 2.164 41.448-35.856-17.11L27.685 137l11.094-50.388L0 52.337l51.653-5.088L72.48 0Z"/>
    <path fill="url(#b)" fill-rule="evenodd" d="M144.294 77.242H98.965V88.98h45.907a49.647 49.647 0 0 1-15.713 32.737 49.665 49.665 0 0 1-33.798 13.288 49.652 49.652 0 0 1-35.105-14.539A49.638 49.638 0 0 1 49.494 66.37a49.627 49.627 0 0 1 26.87-26.86 49.642 49.642 0 0 1 18.997-3.774 49.648 49.648 0 0 1 48.933 41.505Z" clip-rule="evenodd"/>
    <path fill="url(#c)" fill-rule="evenodd" d="M144.294 77.242H98.965V88.98h45.907a49.647 49.647 0 0 1-15.713 32.737 49.665 49.665 0 0 1-33.798 13.288 49.652 49.652 0 0 1-35.105-14.539A49.638 49.638 0 0 1 49.494 66.37a49.627 49.627 0 0 1 26.87-26.86 49.642 49.642 0 0 1 18.997-3.774 49.648 49.648 0 0 1 48.933 41.505Z" clip-rule="evenodd"/>
    <path fill="#fff" d="m89.786 117.136 31.311-40.042H99.894l.929-25.472-31.345 40.032h21.203l-.895 25.482Z"/>
    <path fill="#fff" d="M144.952 77.084h-43.686v11.885h43.686V77.084Z"/>
    <path fill="#010101" d="M184.808 82.091a19.664 19.664 0 0 1-10.46-2.662 17.874 17.874 0 0 1-6.709-7.365 24.25 24.25 0 0 1-2.323-10.866 23.926 23.926 0 0 1 2.38-10.9 17.72 17.72 0 0 1 6.731-7.388 19.429 19.429 0 0 1 10.324-2.663 20.194 20.194 0 0 1 8.771 1.824 14.944 14.944 0 0 1 6.108 5.088 14.976 14.976 0 0 1 2.596 7.648h-9.157a8.702 8.702 0 0 0-2.652-4.872 7.629 7.629 0 0 0-5.53-1.983 8.62 8.62 0 0 0-5.167 1.586 10.054 10.054 0 0 0-3.468 4.476 18.21 18.21 0 0 0-1.224 7.025 18.749 18.749 0 0 0 1.224 7.127 10.425 10.425 0 0 0 3.4 4.532 8.725 8.725 0 0 0 5.224 1.587 8.672 8.672 0 0 0 3.785-.793 7.568 7.568 0 0 0 2.833-2.346 8.987 8.987 0 0 0 1.564-3.716h9.156a15.854 15.854 0 0 1-2.538 7.625 14.971 14.971 0 0 1-5.984 5.167 20.057 20.057 0 0 1-8.884 1.87Zm34.88-24.543v23.738h-9.587V27.25h9.372v20.395h.476a11.747 11.747 0 0 1 4.431-5.404 13.6 13.6 0 0 1 7.672-2.006 14.822 14.822 0 0 1 7.388 1.768 11.883 11.883 0 0 1 4.873 5.166 18.048 18.048 0 0 1 1.746 8.317v25.8h-9.576V56.96a9.068 9.068 0 0 0-2.119-6.356 7.566 7.566 0 0 0-5.882-2.267 9.283 9.283 0 0 0-4.533 1.134 7.804 7.804 0 0 0-3.128 3.138 10.484 10.484 0 0 0-1.133 4.94Zm36.151 23.739V40.768h9.587v40.519h-9.587Zm4.816-46.275a5.588 5.588 0 0 1-3.921-1.507 4.852 4.852 0 0 1-1.643-3.66 4.78 4.78 0 0 1 .418-2.016 4.777 4.777 0 0 1 1.225-1.655 5.564 5.564 0 0 1 3.921-1.53 5.484 5.484 0 0 1 3.921 1.53 4.751 4.751 0 0 1 1.643 3.671 4.828 4.828 0 0 1-1.643 3.66 5.52 5.52 0 0 1-3.921 1.507Zm24.217 22.537v23.738h-9.587v-40.52h9.156v6.879h.476a11.613 11.613 0 0 1 4.533-5.405 13.815 13.815 0 0 1 7.661-2.006c2.559-.058 5.088.56 7.332 1.79a12.165 12.165 0 0 1 4.873 5.201 17.735 17.735 0 0 1 1.722 8.26v25.8h-9.587V56.96a9.063 9.063 0 0 0-2.119-6.356 7.463 7.463 0 0 0-5.802-2.266 8.953 8.953 0 0 0-4.533 1.133 7.752 7.752 0 0 0-3.049 3.139 10.73 10.73 0 0 0-1.076 4.94Zm47.562 24.542a16.995 16.995 0 0 1-6.969-1.37 11.33 11.33 0 0 1-4.873-4.114 12.035 12.035 0 0 1-1.78-6.696 11.337 11.337 0 0 1 1.281-5.665 9.674 9.674 0 0 1 3.468-3.592 17.428 17.428 0 0 1 4.952-2.029 40.55 40.55 0 0 1 5.745-1.03c2.38-.25 4.318-.465 5.803-.658a8.862 8.862 0 0 0 3.229-.952 2.262 2.262 0 0 0 1.032-2.028v-.192a5.964 5.964 0 0 0-1.78-4.623 7.264 7.264 0 0 0-5.111-1.632 9.202 9.202 0 0 0-5.586 1.53 7.566 7.566 0 0 0-2.754 3.614l-8.953-1.269a14.273 14.273 0 0 1 3.502-6.175 15.184 15.184 0 0 1 5.961-3.74 22.667 22.667 0 0 1 7.785-1.268c1.97-.001 3.933.23 5.848.69a16.52 16.52 0 0 1 5.326 2.267 11.416 11.416 0 0 1 3.864 4.25 13.808 13.808 0 0 1 1.485 6.718v27.126h-9.214V75.69h-.351a11.768 11.768 0 0 1-2.47 3.16 11.827 11.827 0 0 1-3.944 2.358 16.01 16.01 0 0 1-5.496.883Zm2.482-7.013a10.44 10.44 0 0 0 5.009-1.133 8.398 8.398 0 0 0 3.252-3.06 7.752 7.752 0 0 0 1.133-4.147v-4.77a4.436 4.436 0 0 1-1.53.68 21.47 21.47 0 0 1-2.391.555c-.884.159-1.756.306-2.618.42l-2.266.317a16.722 16.722 0 0 0-3.842.951 6.457 6.457 0 0 0-2.674 1.847 4.533 4.533 0 0 0-.975 3.014 4.543 4.543 0 0 0 1.938 3.977 8.401 8.401 0 0 0 4.964 1.36v-.011Z"/>
    <path fill="#E52927" d="M381.287 82.091a19.685 19.685 0 0 1-10.459-2.662 17.92 17.92 0 0 1-6.698-7.365 24.242 24.242 0 0 1-2.334-10.866 23.783 23.783 0 0 1 2.391-10.9 17.76 17.76 0 0 1 6.72-7.388 19.424 19.424 0 0 1 10.324-2.663 20.131 20.131 0 0 1 8.771 1.824 14.904 14.904 0 0 1 6.119 5.088 15.09 15.09 0 0 1 2.595 7.648h-9.167a8.625 8.625 0 0 0-2.641-4.872 7.673 7.673 0 0 0-5.541-1.983 8.626 8.626 0 0 0-5.168 1.586 10.206 10.206 0 0 0-3.468 4.476 18.438 18.438 0 0 0-1.212 7.025 18.964 18.964 0 0 0 1.212 7.127 10.354 10.354 0 0 0 3.4 4.532 8.693 8.693 0 0 0 5.213 1.587 8.64 8.64 0 0 0 3.785-.793 7.568 7.568 0 0 0 2.833-2.346 8.987 8.987 0 0 0 1.564-3.716h9.213a15.792 15.792 0 0 1-2.55 7.625 14.968 14.968 0 0 1-5.983 5.167 19.995 19.995 0 0 1-8.919 1.87Zm37.001 0a17 17 0 0 1-6.958-1.37 11.33 11.33 0 0 1-4.873-4.114 11.939 11.939 0 0 1-1.779-6.696 11.49 11.49 0 0 1 1.269-5.666 9.847 9.847 0 0 1 3.467-3.592 17.574 17.574 0 0 1 4.953-2.028 40.987 40.987 0 0 1 5.757-1.03 244.49 244.49 0 0 0 5.79-.658 8.71 8.71 0 0 0 3.23-.952 2.261 2.261 0 0 0 1.043-2.028v-.193a6.007 6.007 0 0 0-1.78-4.623 7.285 7.285 0 0 0-5.11-1.631 9.18 9.18 0 0 0-5.587 1.53 7.566 7.566 0 0 0-2.754 3.614l-8.953-1.269a14.263 14.263 0 0 1 3.491-6.175 15.34 15.34 0 0 1 5.961-3.74 22.754 22.754 0 0 1 7.785-1.268c1.973 0 3.94.231 5.859.69a16.356 16.356 0 0 1 5.315 2.267 11.337 11.337 0 0 1 3.875 4.249 13.797 13.797 0 0 1 1.485 6.719v27.126h-9.225v-5.564h-.317a11.715 11.715 0 0 1-2.459 3.162 11.827 11.827 0 0 1-3.944 2.356 16.084 16.084 0 0 1-5.541.884Zm2.493-7.013c1.738.045 3.46-.345 5.009-1.133a8.475 8.475 0 0 0 3.252-3.06 7.752 7.752 0 0 0 1.133-4.147v-4.77a4.62 4.62 0 0 1-1.541.68c-.781.232-1.576.417-2.38.555-.884.159-1.756.306-2.617.42l-2.267.316a16.722 16.722 0 0 0-3.842.952 6.392 6.392 0 0 0-2.674 1.847 4.533 4.533 0 0 0-.975 3.014 4.534 4.534 0 0 0 1.927 3.977 8.465 8.465 0 0 0 4.975 1.36v-.011Zm28.625 6.208V40.767h9.293v6.799h.43a10.077 10.077 0 0 1 3.808-5.416 10.574 10.574 0 0 1 6.221-1.926c.533 0 1.134 0 1.78.079.559.023 1.116.087 1.665.193v8.735a11.018 11.018 0 0 0-1.926-.373 19.624 19.624 0 0 0-2.516-.182 9.793 9.793 0 0 0-4.714 1.133 8.256 8.256 0 0 0-3.264 3.094 8.66 8.66 0 0 0-1.19 4.532v23.794l-9.587.057Zm61.716-29.788-8.737.952a7.059 7.059 0 0 0-1.292-2.481 6.518 6.518 0 0 0-2.437-1.87 8.916 8.916 0 0 0-3.762-.714 9.228 9.228 0 0 0-5.032 1.292 3.796 3.796 0 0 0-1.994 3.4 3.497 3.497 0 0 0 1.303 2.82 10.922 10.922 0 0 0 4.454 1.825l6.935 1.473c3.842.827 6.709 2.141 8.579 3.932a9.334 9.334 0 0 1 2.855 7.047 10.93 10.93 0 0 1-2.266 6.799 14.579 14.579 0 0 1-6.12 4.532 23.307 23.307 0 0 1-9.009 1.632c-4.971 0-8.979-1.039-12.023-3.116a12.466 12.466 0 0 1-5.429-8.725l9.35-.906a6.56 6.56 0 0 0 2.708 4.147 9.409 9.409 0 0 0 5.372 1.393 9.665 9.665 0 0 0 5.484-1.393 4.066 4.066 0 0 0 2.086-3.456 3.58 3.58 0 0 0-1.349-2.878 9.43 9.43 0 0 0-4.125-1.745l-6.947-1.45c-3.898-.801-6.784-2.165-8.658-4.09a9.993 9.993 0 0 1-2.776-7.332 10.316 10.316 0 0 1 2.04-6.492 13.336 13.336 0 0 1 5.802-4.272 22.5 22.5 0 0 1 8.601-1.53c4.775 0 8.526 1.012 11.253 3.037a12.71 12.71 0 0 1 5.134 8.17Z"/>
    <path fill="#010101" d="M184.309 126.735a14.198 14.198 0 0 1-7.094-1.689 11.52 11.52 0 0 1-4.533-4.827 15.84 15.84 0 0 1-1.609-7.376 15.858 15.858 0 0 1 1.609-7.32 11.953 11.953 0 0 1 4.533-4.929 12.74 12.74 0 0 1 6.799-1.778 14.05 14.05 0 0 1 4.76.804 10.985 10.985 0 0 1 3.989 2.47 11.507 11.507 0 0 1 2.731 4.261 16.798 16.798 0 0 1 .997 6.118v1.96H174.11v-4.294h16.216a6.799 6.799 0 0 0-.804-3.263 5.833 5.833 0 0 0-2.188-2.266 6.135 6.135 0 0 0-3.229-.828 6.324 6.324 0 0 0-3.468.952 6.567 6.567 0 0 0-2.334 2.459 7.038 7.038 0 0 0-.828 3.331v3.751a8.73 8.73 0 0 0 .862 4.045 6.207 6.207 0 0 0 2.436 2.572 7.357 7.357 0 0 0 3.672.884 7.787 7.787 0 0 0 2.538-.397 5.421 5.421 0 0 0 1.972-1.133 4.866 4.866 0 0 0 1.258-1.915l6.017.669a9.357 9.357 0 0 1-2.175 4.124 10.65 10.65 0 0 1-4.046 2.708 15.71 15.71 0 0 1-5.7.907Zm58.044-27.569 5.507 9.983 5.598-9.983h6.8l-8.216 13.518 8.374 13.518h-6.799l-5.779-9.733-5.667 9.733h-6.799l8.318-13.518-8.137-13.517h6.8Zm58.69 37.177V99.167h6.335v4.532h.374a11.11 11.11 0 0 1 1.405-2.096 7.485 7.485 0 0 1 2.448-1.926 8.583 8.583 0 0 1 3.955-.805c2.003-.02 3.969.534 5.666 1.598a10.923 10.923 0 0 1 4.057 4.702 17.229 17.229 0 0 1 1.508 7.603 17.54 17.54 0 0 1-1.474 7.569 11.23 11.23 0 0 1-4.023 4.759 10.414 10.414 0 0 1-5.756 1.631 8.726 8.726 0 0 1-3.887-.77 7.985 7.985 0 0 1-2.437-1.949 12.004 12.004 0 0 1-1.439-2.096h-.272v14.401l-6.46.023Zm6.313-23.659a12.956 12.956 0 0 0 .748 4.6 7.012 7.012 0 0 0 2.187 3.071 5.552 5.552 0 0 0 3.49 1.133 5.59 5.59 0 0 0 3.57-1.133 6.899 6.899 0 0 0 2.164-3.116c.521-1.453.775-2.989.748-4.532a12.63 12.63 0 0 0-.725-4.464 6.797 6.797 0 0 0-2.165-3.071 5.74 5.74 0 0 0-3.592-1.133 5.67 5.67 0 0 0-3.502 1.076 6.588 6.588 0 0 0-2.198 3.037 12.871 12.871 0 0 0-.725 4.532Zm72.855 14.051a14.18 14.18 0 0 1-7.083-1.689 11.618 11.618 0 0 1-4.533-4.827 16.03 16.03 0 0 1-1.598-7.376 15.976 15.976 0 0 1 1.598-7.319 11.973 11.973 0 0 1 4.533-4.929 12.716 12.716 0 0 1 6.8-1.78 14.082 14.082 0 0 1 4.759.805 10.844 10.844 0 0 1 3.978 2.47 11.387 11.387 0 0 1 2.742 4.261 16.803 16.803 0 0 1 .998 6.118v1.96h-22.382v-4.294h16.217a6.8 6.8 0 0 0-.805-3.263 5.823 5.823 0 0 0-2.187-2.266 6.138 6.138 0 0 0-3.23-.827 6.284 6.284 0 0 0-3.467.951 6.577 6.577 0 0 0-2.335 2.459 7.042 7.042 0 0 0-.838 3.331v3.751a8.733 8.733 0 0 0 .872 4.045 6.209 6.209 0 0 0 2.437 2.572 7.323 7.323 0 0 0 3.66.884 7.805 7.805 0 0 0 2.55-.397 5.421 5.421 0 0 0 1.972-1.133 4.875 4.875 0 0 0 1.257-1.915l6.007.669a9.242 9.242 0 0 1-2.165 4.124 10.59 10.59 0 0 1-4.057 2.708c-1.827.654-3.76.962-5.7.907Zm53.387-.533V99.166h6.232v4.533h.295a6.797 6.797 0 0 1 2.55-3.615 7.162 7.162 0 0 1 4.181-1.28c.379 0 .757.019 1.134.056.38.013.758.05 1.133.114v5.869a5.975 5.975 0 0 0-1.292-.249 12.555 12.555 0 0 0-1.7-.125 6.515 6.515 0 0 0-3.161.759 5.56 5.56 0 0 0-2.188 2.063 5.72 5.72 0 0 0-.793 3.036v15.863l-6.391.012Zm70.736-27.036v4.929h-15.695v-4.929h15.695Zm-11.82-6.48h6.437v25.38a4.156 4.156 0 0 0 .385 1.971c.256.432.658.758 1.134.918a3.94 3.94 0 0 0 1.45.25c.38.002.759-.029 1.133-.091.34-.057.601-.113.782-.159l1.134 4.986c-.484.154-.976.283-1.474.385-.746.152-1.505.236-2.266.249a10.522 10.522 0 0 1-4.352-.725 6.792 6.792 0 0 1-3.082-2.504 7.43 7.43 0 0 1-1.133-4.215l-.148-26.446Z"/>
  </g>
  <defs>
    <linearGradient id="b" x1="45.669" x2="144.938" y1="35.737" y2="135.009" gradientUnits="userSpaceOnUse">
      <stop stop-color="#E73532"/>
      <stop offset="1" stop-color="#DB1D1C"/>
    </linearGradient>
    <linearGradient id="c" x1="45.669" x2="144.938" y1="35.737" y2="135.009" gradientUnits="userSpaceOnUse">
      <stop stop-color="#E73532"/>
      <stop offset="1" stop-color="#DB1D1C"/>
    </linearGradient>
    <clipPath id="a">
      <path fill="#fff" d="M0 0h512v137H0z"/>
    </clipPath>
  </defs>
</svg>